<svg width="24" height="24" viewBox="0 0 24 24" fill="none" xmlns="http://www.w3.org/2000/svg">
<path fill-rule="evenodd" clip-rule="evenodd" d="M7.22699 7.22703C7.51989 6.93414 7.99476 6.93414 8.28765 7.22703L16.7729 15.7123C17.0658 16.0052 17.0658 16.4801 16.7729 16.773C16.48 17.0659 16.0052 17.0659 15.7123 16.773L7.22699 8.28769C6.9341 7.9948 6.9341 7.51992 7.22699 7.22703Z" fill="#292D32"/>
<path fill-rule="evenodd" clip-rule="evenodd" d="M16.773 7.22703C17.0659 7.51992 17.0659 7.9948 16.773 8.28769L8.28772 16.773C7.99483 17.0659 7.51996 17.0659 7.22706 16.773C6.93417 16.4801 6.93417 16.0052 7.22706 15.7123L15.7123 7.22703C16.0052 6.93414 16.4801 6.93414 16.773 7.22703Z" fill="#292D32"/>
</svg>
