<svg width="64" height="64" viewBox="0 0 64 64" fill="none" xmlns="http://www.w3.org/2000/svg">
<path d="M61.5827 26.4361L35.4777 26.4348C34.325 26.4348 33.3906 27.3691 33.3906 28.5218V36.8612C33.3906 38.0137 34.325 38.9482 35.4776 38.9482H50.1784C48.5686 43.1258 45.5641 46.6244 41.7309 48.8474L47.9992 59.6986C58.0545 53.8832 63.9992 43.6796 63.9992 32.2573C63.9992 30.6309 63.8794 29.4683 63.6396 28.1592C63.4574 27.1646 62.5939 26.4361 61.5827 26.4361Z" fill="#167EE6"/>
<path d="M31.9994 51.4783C24.8052 51.4783 18.5247 47.5476 15.1515 41.731L4.30078 47.9852C9.82266 57.5555 20.1669 64.0001 31.9994 64.0001C37.804 64.0001 43.2812 62.4372 47.9994 59.7136V59.6987L41.731 48.8475C38.8638 50.5105 35.5458 51.4783 31.9994 51.4783Z" fill="#12B347"/>
<path d="M48 59.7135V59.6987L41.7316 48.8474C38.8644 50.5103 35.5466 51.4783 32 51.4783V64C37.8046 64 43.282 62.4372 48 59.7135Z" fill="#0F993E"/>
<path d="M12.5218 32C12.5218 28.4539 13.4895 25.1363 15.1521 22.2691L4.30137 16.0149C1.56275 20.7183 0 26.1805 0 32C0 37.8195 1.56275 43.2818 4.30137 47.9851L15.1521 41.7309C13.4895 38.8638 12.5218 35.5461 12.5218 32Z" fill="#FFD500"/>
<path d="M31.9994 12.5218C36.6908 12.5218 41 14.1887 44.3659 16.9616C45.1963 17.6456 46.4032 17.5962 47.1638 16.8356L53.0725 10.9269C53.9355 10.0639 53.874 8.65125 52.9522 7.8515C47.3128 2.95913 39.9753 0 31.9994 0C20.1669 0 9.82266 6.44463 4.30078 16.0149L15.1515 22.2691C18.5247 16.4525 24.8052 12.5218 31.9994 12.5218Z" fill="#FF4B26"/>
<path d="M44.3665 16.9616C45.1969 17.6456 46.4039 17.5962 47.1644 16.8356L53.0731 10.9269C53.936 10.0639 53.8745 8.65125 52.9528 7.8515C47.3134 2.959 39.9759 0 32 0V12.5218C36.6912 12.5218 41.0006 14.1887 44.3665 16.9616Z" fill="#D93F21"/>
</svg>
