<svg width="24" height="24" viewBox="0 0 24 24" fill="none" xmlns="http://www.w3.org/2000/svg">
<path fill-rule="evenodd" clip-rule="evenodd" d="M13.6392 2.92256C8.97504 1.90696 4.85999 5.42086 4.85999 9.9C4.85999 12.466 6.56481 14.955 8.68791 16.2381C8.91265 16.3739 9.04999 16.6174 9.04999 16.88V18.04C9.04999 18.1068 9.0481 18.1734 9.04662 18.2258C9.04654 18.2287 9.04646 18.2315 9.04638 18.2342C9.10171 18.2384 9.16989 18.2408 9.25317 18.24L9.25999 18.24V18.24H14.77C14.871 18.24 14.9395 18.2316 14.9831 18.2229C14.9833 18.2077 14.9832 18.1902 14.9828 18.1695C14.9824 18.1495 14.9819 18.1326 14.9812 18.1082C14.9807 18.0866 14.98 18.0586 14.98 18.03V16.87C14.98 16.6073 15.1175 16.3637 15.3424 16.2279C18.3217 14.4293 20.2741 10.3633 18.3985 6.59413L18.3985 6.59411C17.4737 4.73553 15.6865 3.37589 13.6392 2.92256ZM9.04753 18.4219C9.04751 18.422 9.04736 18.4212 9.04714 18.4196L9.04753 18.4219ZM3.35999 9.9C3.35999 4.4795 8.34426 0.233608 13.9597 1.4572L13.962 1.45771C16.4342 2.00465 18.6064 3.64484 19.7415 5.92589C21.965 10.3943 19.7642 15.0704 16.48 17.2809V18.03C16.48 18.031 16.4802 18.034 16.4805 18.0388C16.4855 18.1099 16.5183 18.5781 16.3162 18.9655C16.0325 19.5096 15.462 19.74 14.77 19.74H9.26332C8.70261 19.7447 8.05418 19.6584 7.72272 19.1006C7.57519 18.8523 7.55136 18.5978 7.54577 18.44C7.54283 18.3571 7.5447 18.2762 7.54639 18.2132C7.54672 18.2009 7.54705 18.1892 7.54736 18.178C7.54882 18.1258 7.54999 18.0838 7.54999 18.04V17.2909C5.2362 15.7363 3.35999 12.9371 3.35999 9.9Z" fill="#292D32"/>
<path fill-rule="evenodd" clip-rule="evenodd" d="M15.2952 22.7215C13.139 22.1095 10.8609 22.1095 8.70474 22.7215C8.30627 22.8346 7.89155 22.6033 7.77845 22.2048C7.66535 21.8063 7.89668 21.3916 8.29516 21.2785C10.719 20.5905 13.2809 20.5905 15.7047 21.2785C16.1032 21.3916 16.3346 21.8063 16.2214 22.2048C16.1083 22.6033 15.6936 22.8346 15.2952 22.7215Z" fill="#292D32"/>
</svg>
