<svg width="24" height="24" viewBox="0 0 24 24" fill="none" xmlns="http://www.w3.org/2000/svg">
<path fill-rule="evenodd" clip-rule="evenodd" d="M8 1.25C8.41421 1.25 8.75 1.58579 8.75 2V5C8.75 5.41421 8.41421 5.75 8 5.75C7.58579 5.75 7.25 5.41421 7.25 5V2C7.25 1.58579 7.58579 1.25 8 1.25Z" fill="#292D32"/>
<path fill-rule="evenodd" clip-rule="evenodd" d="M16 1.25C16.4142 1.25 16.75 1.58579 16.75 2V5C16.75 5.41421 16.4142 5.75 16 5.75C15.5858 5.75 15.25 5.41421 15.25 5V2C15.25 1.58579 15.5858 1.25 16 1.25Z" fill="#292D32"/>
<path fill-rule="evenodd" clip-rule="evenodd" d="M2.75 9.09C2.75 8.67578 3.08579 8.34 3.5 8.34H20.5C20.9142 8.34 21.25 8.67578 21.25 9.09C21.25 9.50421 20.9142 9.84 20.5 9.84H3.5C3.08579 9.84 2.75 9.50421 2.75 9.09Z" fill="#292D32"/>
<path fill-rule="evenodd" clip-rule="evenodd" d="M4.4871 5.63534C3.84637 6.32535 3.5 7.36497 3.5 8.75V17.25C3.5 18.635 3.84637 19.6746 4.4871 20.3647C5.11848 21.0446 6.14295 21.5 7.75 21.5H15.75C17.357 21.5 18.3815 21.0446 19.0129 20.3647C19.6536 19.6746 20 18.635 20 17.25V8.75C20 7.36497 19.6536 6.32535 19.0129 5.63534C18.3815 4.95538 17.357 4.5 15.75 4.5H7.75C6.14295 4.5 5.11848 4.95538 4.4871 5.63534ZM3.3879 4.61466C4.38152 3.54462 5.85705 3 7.75 3H15.75C17.643 3 19.1185 3.54462 20.1121 4.61466C21.0964 5.67465 21.5 7.13503 21.5 8.75V17.25C21.5 18.865 21.0964 20.3254 20.1121 21.3853C19.1185 22.4554 17.643 23 15.75 23H7.75C5.85705 23 4.38152 22.4554 3.3879 21.3853C2.40363 20.3254 2 18.865 2 17.25V8.75C2 7.13503 2.40363 5.67465 3.3879 4.61466Z" fill="#292D32"/>
<path fill-rule="evenodd" clip-rule="evenodd" d="M14.6947 13.7C14.6947 13.1477 15.1424 12.7 15.6947 12.7H15.7037C16.256 12.7 16.7037 13.1477 16.7037 13.7C16.7037 14.2523 16.256 14.7 15.7037 14.7H15.6947C15.1424 14.7 14.6947 14.2523 14.6947 13.7Z" fill="#292D32"/>
<path fill-rule="evenodd" clip-rule="evenodd" d="M14.6947 16.7C14.6947 16.1477 15.1424 15.7 15.6947 15.7H15.7037C16.256 15.7 16.7037 16.1477 16.7037 16.7C16.7037 17.2523 16.256 17.7 15.7037 17.7H15.6947C15.1424 17.7 14.6947 17.2523 14.6947 16.7Z" fill="#292D32"/>
<path fill-rule="evenodd" clip-rule="evenodd" d="M10.9955 13.7C10.9955 13.1477 11.4432 12.7 11.9955 12.7H12.0045C12.5568 12.7 13.0045 13.1477 13.0045 13.7C13.0045 14.2523 12.5568 14.7 12.0045 14.7H11.9955C11.4432 14.7 10.9955 14.2523 10.9955 13.7Z" fill="#292D32"/>
<path fill-rule="evenodd" clip-rule="evenodd" d="M10.9955 16.7C10.9955 16.1477 11.4432 15.7 11.9955 15.7H12.0045C12.5568 15.7 13.0045 16.1477 13.0045 16.7C13.0045 17.2523 12.5568 17.7 12.0045 17.7H11.9955C11.4432 17.7 10.9955 17.2523 10.9955 16.7Z" fill="#292D32"/>
<path fill-rule="evenodd" clip-rule="evenodd" d="M7.29431 13.7C7.29431 13.1477 7.74203 12.7 8.29431 12.7H8.30329C8.85558 12.7 9.30329 13.1477 9.30329 13.7C9.30329 14.2523 8.85558 14.7 8.30329 14.7H8.29431C7.74203 14.7 7.29431 14.2523 7.29431 13.7Z" fill="#292D32"/>
<path fill-rule="evenodd" clip-rule="evenodd" d="M7.29431 16.7C7.29431 16.1477 7.74203 15.7 8.29431 15.7H8.30329C8.85558 15.7 9.30329 16.1477 9.30329 16.7C9.30329 17.2523 8.85558 17.7 8.30329 17.7H8.29431C7.74203 17.7 7.29431 17.2523 7.29431 16.7Z" fill="#292D32"/>
</svg>
